<svg id="Layer_2" data-name="Layer 2" xmlns="http://www.w3.org/2000/svg" width="470.64" height="315.35" viewBox="0 0 470.64 315.35">
  <defs>
    <style>
      .cls-1 {
        fill: #fff;
      }
    </style>
  </defs>
  <title>white_house</title>
  <g>
    <path class="cls-1" d="M1544.82,1167.26c0,10-.12,18.92.14,27.84,0,1.17,1.8,2.72,3.12,3.36,29.91,14.62,59.74,29.43,90,43.4,5.18,2.4,12,1.43,18.14,1.5,9.48.12,8.14,1.13,8.27-8.16,0-3.33-.07-6.66,0-10,.13-6,2.69-8.65,8.48-8.76,6-.11,12-.13,18,0,5.15.11,7.6,2.65,7.68,7.73.08,4.5.31,9,0,13.5-.39,4.76,1.56,5.89,6,5.8,13.16-.26,26.33-.09,39.5-.09,7.57,0,9.5,1.86,9.55,9.33,0,5.16.15,10.34-.06,15.49-.14,3.45,1.23,5,4.6,4.85,1.33,0,2.67,0,4,.13,3.69.23,6.17,2.26,6.26,5.84.1,3.84-2.55,6-6.29,6.5-8.49,1.12-8.48,1.07-8.49,9.68q0,62.49,0,125c0,7,0,7,6.8,7,2.5,0,5,0,7.5.09,3.9.12,6.55,2.11,6.56,6,0,4.15-2.73,6.24-6.83,6.26-12.5.05-25,0-37.5,0q-209,0-418,0c-4.17,0-7.77-1.06-8.3-5.24-.25-2.06,1.9-5.24,3.86-6.52,1.81-1.17,4.83-.56,7.32-.6,11-.17,9.42.63,9.43-9.34q.1-62.49,0-125c0-8.2.42-7.48-7.17-7.4-3.84.05-6.86-1.6-7.49-5.18-.34-1.88,1.21-4.86,2.85-6.11s4.41-1.16,6.67-1.09c3.81.12,5.42-1.14,5.16-5.2-.33-5.15-.13-10.33-.06-15.49.09-6.62,2.54-9.08,9-9.09,13.83,0,27.66-.13,41.49.07,3.74,0,5.09-1.3,5-4.86-.09-5,0-10,0-15,0-4.79,2.81-7,7.22-7.16,6.33-.2,12.67-.21,19,0,5.07.19,7.28,2.82,7.34,8.08.06,5,.1,10,0,15,0,2.74,1.09,3.79,3.86,3.87,11.86.34,23-.59,34.1-6.54,24.79-13.25,50.37-25.06,75.74-37.24,3.88-1.86,5.21-4.15,5.16-8.41-.22-19.5-.13-39-.09-58.5,0-7.44,3.53-10,10.57-7.54,9.59,3.3,19.09,6.85,28.69,10.13,4.13,1.41,5.74,4.45,5.82,8.37.16,7.83.24,15.67,0,23.5-.2,6-4,8.42-9.88,6.73C1560.44,1171.9,1553.31,1169.76,1544.82,1167.26Zm196.53,189.34c0-21.66-.12-43.32.1-65,0-4.79-1.41-6.2-6.23-6.17-35,.19-70,.1-105,.11-6.65,0-6.73,0-6.66,6.86.05,3.82,0,7.75-4.22,9.2-3.45,1.18-3.83,3.29-3.83,6.38q.12,56.48,0,113c0,4.66,1.17,6.38,6.12,6.35q56.71-.25,113.45,0c4.67,0,6.42-1.34,6.37-6.24C1741.23,1399.59,1741.36,1378.09,1741.35,1356.6Zm-403.77-71v5.91c0,43.17.08,86.33-.15,129.5,0,5.25,1.71,6.38,6.55,6.36,37.33-.16,74.66-.06,112-.07,6.83,0,7.07-.21,7.08-7q.08-31.5,0-63c0-16.5,0-33-.15-49.5,0-1.74-.82-4.66-1.88-5-5.69-1.76-6-5.92-5.86-10.7.16-6.52,0-6.52-6.62-6.52l-105,0Zm201.57,4.35h65.42c6.1,0,6.59-.57,6.42-6.54-.21-7.14-.69-14.3-.44-21.43.18-4.88-1.51-6.28-6.25-6.22-18.31.22-36.62.1-54.93.11-25.47,0-50.94.1-76.41,0-4.09,0-5.59,1.31-5.42,5.49.28,7.31.08,14.64.07,22,0,6.62,0,6.62,6.62,6.62Zm29.56,75.07h0c0,19,.07,38-.06,57,0,3.78,1.08,5.49,5.1,5.38q12-.3,24,0c4,.1,5.78-1.26,5.62-5.45-.22-6.33-.06-12.67-.06-19,0-31.49-.07-63,.07-94.47,0-4.44-1.16-6.22-5.91-6a223.16,223.16,0,0,1-23,0c-4.85-.26-5.88,1.72-5.84,6.07C1568.8,1327.35,1568.71,1346.18,1568.71,1365Zm-46-62.38c-.23,2.44-.56,4.4-.57,6.35-.05,13.81,0,27.62-.05,41.44,0,23.46.06,46.92-.09,70.38,0,4.81,1.39,6.91,6.58,6.62,7.46-.4,15-.26,22.46,0,4.08.13,5.52-1.29,5.46-5.45-.21-13.64-.08-27.29-.08-40.94,0-24.46,0-48.92-.11-73.38,0-1.67-1.53-4.74-2.42-4.77C1543.61,1302.51,1533.32,1302.63,1522.7,1302.63Zm-46.67.25a15.73,15.73,0,0,0-.4,2.33q0,59-.11,117.93c0,3.47,1.61,4.2,4.6,4.16,7.83-.09,15.67-.25,23.48.07,4.59.19,5.94-1.28,5.92-5.92-.18-37.48-.09-75-.08-112.44v-6.13Zm-5.71-61.11.4,1H1608.9a29.86,29.86,0,0,0-3.05-2.17c-21.41-10.39-42.79-20.85-64.32-31-2-.91-5.24-.35-7.37.66-19.81,9.49-39.51,19.22-59.24,28.9C1473.35,1240,1471.85,1240.91,1470.32,1241.77Zm212.09,31.3c15.83,0,31.66.13,47.48,0,13.53-.14,11,1.35,11.53-11.43.19-4.49-1.57-5.71-5.82-5.69-33.81.13-67.63.06-101.45.1-10.56,0-10.25.07-10.68,10.63-.21,5.2,1.54,6.58,6.47,6.52C1647.43,1272.93,1664.92,1273.07,1682.41,1273.07Zm-285.87-.16c17.29,0,34.58,0,51.87-.05,2.06,0,5.81-.54,5.91-1.23a48.7,48.7,0,0,0,.27-13.74c-.14-1-4.5-2-6.92-2q-49.68-.2-99.37-.07c-13.07,0-10.25-1-10.83,11-.25,4.92,1.57,6.24,6.22,6.19C1361.31,1272.8,1378.93,1272.91,1396.54,1272.91Zm168-112.93c0-4.46.13-7.6-.07-10.72-.08-1.17-.63-3-1.45-3.33-5.62-2.27-11.36-4.22-18.18-6.67,0,4.91-.16,8.67.1,12.4a4.05,4.05,0,0,0,2.15,2.9C1552.48,1156.43,1558,1158,1564.49,1160Zm113.34,83.93c3.11-.66,7.39-.71,7.67-1.79a23.28,23.28,0,0,0,.08-11.22c-.27-1.08-4.76-1.09-7.75-1.67Zm-284.95-.06c3-.65,7.38-.68,7.7-1.84a21.71,21.71,0,0,0,0-11.09c-.31-1.13-4.73-1.13-7.67-1.73Z" transform="translate(-1303.84 -1124.34)"/>
    <path class="cls-1" d="M1685.4,1333c0-4.31-.08-8.63,0-12.94s3-7.73,6.45-7.34c4.11.46,5.91,3.06,5.87,7.22-.09,9,0,17.92,0,26.88,0,4.09-1.59,6.87-6,6.85-4.26,0-6.25-2.63-6.31-6.73C1685.35,1342.3,1685.41,1337.65,1685.4,1333Z" transform="translate(-1303.84 -1124.34)"/>
    <path class="cls-1" d="M1645.62,1333.1c0,4.65.05,9.3,0,13.94,0,4.15-2.1,6.65-6.37,6.64s-5.83-2.71-5.86-6.52c-.06-9.3,0-18.59,0-27.89,0-4.09,2.36-6.51,6-6.49s6.21,2.27,6.23,6.38C1645.64,1323.8,1645.61,1328.45,1645.62,1333.1Z" transform="translate(-1303.84 -1124.34)"/>
    <path class="cls-1" d="M1723.86,1333.47c0,4.65.09,9.31,0,14-.1,3.89-2.08,6.33-6.16,6.28s-6.09-2.64-6.16-6.4c-.18-9.3-.16-18.6,0-27.9,0-3.82,3.41-7.24,6.56-6.74,3.71.59,5.85,2.84,5.8,6.86-.06,4.65,0,9.3,0,14Z" transform="translate(-1303.84 -1124.34)"/>
    <path class="cls-1" d="M1645.65,1388.58c0,4.48-.07,9,0,13.44.08,4.22-2.1,7-6,7.08s-6.3-2.51-6.29-6.78c0-9.13,0-18.25,0-27.38,0-4.11,2-6.74,6.26-6.72s6,2.88,6,6.92c0,4.48,0,9,0,13.44Z" transform="translate(-1303.84 -1124.34)"/>
    <path class="cls-1" d="M1671.65,1388.84c0,4.5.1,9,0,13.5-.11,4.08-2.93,7.15-6.35,6.76-3.86-.45-5.88-2.84-5.88-6.79,0-9.16,0-18.33,0-27.49,0-3.88,1.79-6.46,5.91-6.55,4.34-.09,6.35,2.35,6.35,6.57q0,7,0,14Z" transform="translate(-1303.84 -1124.34)"/>
    <path class="cls-1" d="M1697.71,1388.7c0,4.49,0,9,0,13.48,0,4.24-2.15,6.92-6.23,6.82s-6.12-2.9-6.11-7c0-8.83,0-17.66.06-26.48,0-4.76,2.35-7.25,6.37-7.22s5.87,2.33,5.92,7.46c0,4.33,0,8.66,0,13Z" transform="translate(-1303.84 -1124.34)"/>
    <path class="cls-1" d="M1723.85,1388.93c0,4.48,0,9,0,13.44,0,4-2,6.68-5.77,6.76s-6.55-2.48-6.61-6.63c-.14-9.29-.18-18.59,0-27.88.08-4.08,2.52-6.45,6.72-6.37,3.94.09,5.53,2.61,5.58,6.24.08,4.81,0,9.62,0,14.44Z" transform="translate(-1303.84 -1124.34)"/>
    <path class="cls-1" d="M1659.4,1333c0-4.49,0-9,0-13.48,0-4,2.34-6.24,6.07-6.68,3.4-.4,6.15,2.8,6.18,6.92.06,9,0,18,0,27,0,4.06-1.58,6.83-6,7-4,.15-6.22-2.45-6.28-7.24-.05-4.5,0-9,0-13.49Z" transform="translate(-1303.84 -1124.34)"/>
    <path class="cls-1" d="M1366.67,1388.69c0,4.49-.05,9,0,13.46,0,4.24-2.26,6.95-6.17,7s-6.18-2.7-6.16-6.94c0-9.14,0-18.27,0-27.41,0-3.92,1.8-6.41,5.86-6.54,4.33-.14,6.34,2.39,6.41,6.52.08,4.65,0,9.3,0,14Z" transform="translate(-1303.84 -1124.34)"/>
    <path class="cls-1" d="M1354.37,1332.82c0-4.31.09-8.63,0-12.94s2-7,6-7.06,6.37,2.43,6.35,6.75c0,9.12,0,18.25,0,27.38,0,4.13-2,6.71-6.26,6.71-4.44,0-6-2.88-6-6.9C1354.36,1342.11,1354.37,1337.47,1354.37,1332.82Z" transform="translate(-1303.84 -1124.34)"/>
    <path class="cls-1" d="M1418.75,1333.78c0,4.31,0,8.63,0,12.94,0,4.06-1.45,6.93-5.89,7-4.23,0-6.39-2.49-6.42-6.61-.09-9.13-.08-18.26,0-27.39,0-4.15,2.48-6.87,6.35-6.9,4.06,0,6,2.89,6,7-.07,4.65,0,9.3,0,14Z" transform="translate(-1303.84 -1124.34)"/>
    <path class="cls-1" d="M1444.87,1333.28c0,4.65.08,9.3,0,14-.08,3.83-1.85,6.42-6,6.45-4.35,0-6.31-2.73-6.37-6.69-.16-9.13-.12-18.27,0-27.4,0-4.13,2.5-6.82,6.41-6.83,3.69,0,6,2.55,6,6.58,0,4.64,0,9.29,0,13.94Z" transform="translate(-1303.84 -1124.34)"/>
    <path class="cls-1" d="M1380.39,1388.49c0-4.33-.06-8.67,0-13,.09-4.88,2.24-7.37,6.28-7.23,4.42.15,6,2.82,6,6.93,0,9-.07,18,0,27,0,4.26-2.22,6.89-6.24,6.85s-6.11-2.87-6.06-7C1380.43,1397.48,1380.39,1393,1380.39,1388.49Z" transform="translate(-1303.84 -1124.34)"/>
    <path class="cls-1" d="M1418.72,1388.37c0,4.67,0,9.33,0,14,0,4-2.06,6.57-5.9,6.64-4.09.08-6.38-2.6-6.41-6.74q-.11-13.74,0-27.47c0-4.16,2.29-6.58,6.56-6.49s5.78,2.64,5.74,6.59c0,4.49,0,9,0,13.48Z" transform="translate(-1303.84 -1124.34)"/>
    <path class="cls-1" d="M1444.89,1389.26c0,4.32,0,8.63,0,13,0,3.93-1.88,6.37-5.64,7-3.17.54-6.69-2.79-6.76-6.57-.17-9.46-.24-18.93,0-28.38.1-3.76,2.54-6.1,6.53-6s5.67,2.43,5.74,6.09c.1,5,0,10,0,14.94Z" transform="translate(-1303.84 -1124.34)"/>
    <path class="cls-1" d="M1392.65,1333.45c0,4.5,0,9,0,13.49,0,4.11-1.85,6.83-6.24,6.71-4-.11-6-2.54-6-6.49,0-9.16,0-18.32,0-27.49,0-4.21,2.43-6.92,6.35-6.83s6.11,2.81,6,7.12c-.16,4.49,0,9,0,13.49Z" transform="translate(-1303.84 -1124.34)"/>
    <path class="cls-1" d="M1591.9,1333.67c0,4.64.12,9.29,0,13.92-.13,3.61-2,6-5.82,6.08-4.06.09-6.39-2.41-6.5-6.08-.28-9.45-.22-18.91,0-28.35a6.24,6.24,0,0,1,6.34-6.44c3.7-.06,6.06,2.43,6.09,6.44,0,4.81,0,9.62,0,14.43Z" transform="translate(-1303.84 -1124.34)"/>
    <path class="cls-1" d="M1591.91,1388.82c0,4.65.1,9.31,0,14-.11,3.68-2.06,6-5.86,6.09-4,.1-6.38-2.35-6.48-6.11-.24-9.47-.26-19,0-28.43.11-3.68,2.4-6.17,6.52-6.07,3.91.1,5.7,2.48,5.81,6.1.16,4.81,0,9.64,0,14.46Z" transform="translate(-1303.84 -1124.34)"/>
    <path class="cls-1" d="M1545.64,1388.93c0,4.49.08,9,0,13.45-.09,3.94-3.07,7.28-6.33,6.81-3.67-.54-6-2.68-6-6.73,0-9.3,0-18.6,0-27.89,0-4,2.1-6.29,6.1-6.35s6,2.4,6.14,6.27c.12,4.81,0,9.63,0,14.44Z" transform="translate(-1303.84 -1124.34)"/>
    <path class="cls-1" d="M1533.35,1333c0-4.48.06-9,0-13.44-.08-4,2.16-6.27,5.78-6.88,3.25-.54,6.42,2.8,6.46,6.7q.18,13.93,0,27.88c0,4.17-2.33,6.54-6.56,6.4s-5.63-3-5.66-6.73C1533.33,1342.3,1533.35,1337.65,1533.35,1333Z" transform="translate(-1303.84 -1124.34)"/>
    <path class="cls-1" d="M1486.23,1388.55c0-4.65-.07-9.3,0-14,.08-3.91,2-6.34,6.11-6.26s6.14,2.41,6.18,6.33q.15,13.93,0,27.88c-.06,4.13-2.6,6.77-6.54,6.66-3.71-.1-5.87-2.72-5.84-6.72,0-4.65,0-9.3,0-13.94Z" transform="translate(-1303.84 -1124.34)"/>
    <path class="cls-1" d="M1498.57,1333.63c0,4.48.1,9,0,13.44-.11,4.07-2.14,6.62-6.43,6.6s-5.88-2.6-5.9-6.47c0-9.13,0-18.25,0-27.38,0-4.15,2.14-6.68,6.09-7.17,3.32-.41,6.2,3.22,6.29,7.53C1498.65,1324.66,1498.57,1329.14,1498.57,1333.63Z" transform="translate(-1303.84 -1124.34)"/>
  </g>
</svg>
